<svg xmlns="http://www.w3.org/2000/svg" xmlns:xlink="http://www.w3.org/1999/xlink" width="500" zoomAndPan="magnify" viewBox="0 0 375 374.999991" height="500" preserveAspectRatio="xMidYMid meet" version="1.0"><defs><g/><clipPath id="ea993873e4"><path d="M 20.585938 90.300781 L 354.488281 90.300781 L 354.488281 213 L 20.585938 213 Z M 20.585938 90.300781 " clip-rule="nonzero"/></clipPath><clipPath id="42421416b8"><path d="M 150 37.5 L 170 37.5 L 170 59 L 150 59 Z M 150 37.5 " clip-rule="nonzero"/></clipPath></defs><g clip-path="url(#ea993873e4)"><path fill="#040606" d="M 26.84375 183.917969 C 35.4375 188.265625 45.011719 190.320312 54.410156 192.3125 C 66.464844 194.859375 78.554688 196.171875 90.824219 197.109375 C 102.511719 197.992188 114.066406 199.125 125.652344 200.875 C 131.484375 201.753906 137.292969 202.683594 143.148438 203.394531 C 147.207031 203.890625 152.214844 204.90625 156.796875 204.90625 C 157.4375 204.21875 158.113281 203.546875 158.789062 202.914062 C 147.761719 201.234375 136.703125 199.570312 125.769531 197.226562 C 120.078125 196.003906 114.40625 194.152344 108.609375 193.457031 C 103.042969 192.789062 97.378906 192.9375 91.769531 192.539062 C 69.605469 191.011719 47.742188 186.351562 26.820312 178.882812 C 26.605469 180.511719 26.777344 182.5 26.84375 183.917969 Z M 160.714844 201.265625 C 161.183594 200.882812 161.199219 200.898438 161.6875 200.53125 C 156.804688 198.359375 151.339844 198.019531 146.382812 196.007812 C 141.105469 193.859375 135.957031 191.511719 130.558594 189.683594 C 118.695312 185.6875 106.269531 184.089844 93.960938 182.148438 C 81.777344 180.21875 69.601562 178.046875 57.34375 176.710938 C 51.21875 176.042969 45.066406 175.609375 38.894531 175.648438 C 37.292969 175.667969 35.691406 175.710938 34.089844 175.789062 C 32.613281 175.867188 29.019531 175.570312 28.015625 176.265625 C 27.902344 176.355469 27.792969 176.4375 27.699219 176.566406 C 48.867188 184.113281 70.96875 188.765625 93.429688 190.171875 C 98.75 190.503906 104.140625 190.371094 109.429688 191.082031 C 114.15625 191.726562 118.75 193.128906 123.410156 194.167969 C 135.203125 196.851562 147.175781 198.652344 159.125 200.472656 C 159.792969 200.5625 160.644531 200.71875 160.714844 201.265625 Z M 161.945312 204.34375 C 164.605469 203.664062 166.757812 201.804688 168.988281 200.3125 C 170.679688 199.183594 172.523438 198.40625 174.265625 197.40625 C 169.132812 198.589844 164.472656 201.113281 160.59375 204.625 C 161.046875 204.550781 161.503906 204.453125 161.945312 204.34375 Z M 124.082031 144.140625 C 123.867188 143.957031 123.636719 143.785156 123.40625 143.59375 C 113.132812 139.976562 102.394531 137.304688 91.6875 135.34375 C 82.640625 133.710938 73.378906 132.632812 64.179688 132.976562 C 59.828125 133.148438 55.480469 133.644531 51.261719 134.78125 C 49.261719 135.316406 47.3125 136 45.425781 136.886719 C 45.242188 136.972656 45.039062 137.09375 44.816406 137.230469 C 47.570312 137.648438 50.28125 138.113281 53.011719 138.601562 C 62.4375 140.285156 71.800781 142.257812 81.09375 144.554688 C 104.382812 150.277344 128.253906 157.621094 148.769531 170.351562 C 153.421875 173.246094 158.011719 176.519531 162.09375 180.289062 C 162.21875 180.398438 162.363281 180.515625 162.488281 180.628906 C 166.761719 184.636719 170.488281 189.175781 173.179688 194.40625 C 173.300781 194.648438 173.878906 194.738281 173.851562 194.957031 C 174.386719 194.828125 174.402344 194.847656 174.933594 194.738281 C 163.933594 173.402344 142.238281 158.921875 124.082031 144.140625 Z M 177.4375 177.269531 C 181.988281 170.410156 189.761719 166.167969 196.996094 162.417969 C 234.789062 142.800781 271.59375 121.1875 308.855469 100.59375 C 309.171875 100.421875 309.484375 100.246094 309.800781 100.078125 C 307.753906 100.882812 305.710938 101.730469 303.675781 102.644531 C 299.007812 104.753906 294.285156 106.785156 289.578125 108.8125 C 278.070312 113.8125 266.539062 118.753906 255.113281 123.898438 C 232.375 134.121094 208.191406 144.480469 188.433594 159.925781 C 184.03125 163.351562 176.3125 169.285156 176.011719 175.75 C 176.523438 176.238281 177 176.746094 177.4375 177.269531 Z M 186.25 197.648438 C 186.242188 197.648438 186.246094 197.644531 186.238281 197.644531 C 186.238281 197.648438 186.238281 197.648438 186.238281 197.652344 C 186.242188 197.652344 186.246094 197.652344 186.25 197.648438 Z M 186.921875 200.464844 C 187.753906 201.164062 188.574219 201.71875 189.433594 202.164062 C 189.566406 201.933594 189.808594 201.773438 190.136719 201.695312 C 190.613281 201.582031 191.09375 201.433594 191.550781 201.25 C 191.128906 200.871094 190.703125 200.476562 190.28125 200.097656 C 189.5 199.417969 188.445312 198.386719 187.472656 198.101562 C 186.261719 197.734375 185.054688 197.40625 183.824219 197.09375 C 184.75 198.34375 185.734375 199.445312 186.921875 200.464844 Z M 253.90625 188.035156 C 241.804688 186.355469 229.3125 185.597656 217.429688 189.035156 C 211.832031 190.660156 206.417969 193.175781 201.828125 196.8125 C 199.777344 198.4375 197.953125 200.253906 195.886719 201.695312 C 195.871094 201.695312 195.851562 201.714844 195.832031 201.734375 C 195.851562 201.714844 195.886719 201.714844 195.90625 201.714844 C 217.300781 196 238.988281 191.453125 260.90625 188.167969 C 271.03125 186.675781 280.925781 185.605469 291.171875 186.0625 C 301.089844 186.503906 311.996094 187.417969 320.382812 181.101562 C 321.652344 180.140625 323.359375 181.941406 322.09375 182.898438 C 314.914062 188.292969 306.285156 189.035156 297.578125 188.8125 C 292.851562 188.679688 288.136719 188.292969 283.402344 188.324219 C 277.109375 188.378906 270.859375 189.234375 264.644531 190.125 C 242.21875 193.339844 220.007812 197.902344 198.117188 203.675781 C 198.023438 203.695312 197.933594 203.691406 197.824219 203.6875 L 197.894531 203.742188 C 197.96875 203.726562 198.042969 203.710938 198.117188 203.675781 C 203.554688 203.707031 209 203.625 214.4375 203.597656 C 226.921875 203.542969 239.148438 202.914062 251.445312 200.632812 C 262.464844 198.601562 273.730469 194.363281 285.066406 195.523438 C 291.613281 196.183594 297.679688 197.144531 304.261719 196.082031 C 310.421875 195.09375 316.378906 193.175781 322.410156 191.675781 C 327.859375 190.320312 333.3125 189.859375 338.816406 188.945312 C 341.140625 188.5625 343.554688 188.058594 345.582031 186.851562 C 346.230469 186.472656 346.734375 185.960938 347.226562 185.449219 C 347.101562 185.261719 347.039062 185.0625 347.03125 184.804688 C 346.878906 180.945312 346.191406 177.304688 345 173.664062 C 330.765625 175.539062 316.554688 177.429688 302.320312 179.324219 C 288.765625 181.109375 274.597656 184.351562 260.894531 183.367188 C 247.296875 182.386719 234.25 178.609375 220.578125 181.1875 C 209.097656 183.371094 198.5 188.761719 189.921875 196.617188 C 191.398438 197.570312 192.777344 198.726562 194.125 199.984375 C 197.519531 197.875 200.375 194.605469 203.675781 192.488281 C 208.097656 189.628906 213.054688 187.609375 218.140625 186.261719 C 229.863281 183.179688 242.101562 183.914062 253.984375 185.566406 C 255.558594 185.777344 255.496094 188.25 253.90625 188.035156 Z M 340.648438 170.925781 C 340.714844 170.582031 340.761719 170.222656 340.808594 169.878906 C 323.203125 165.734375 305.082031 166.304688 287.167969 167.800781 C 269.109375 169.339844 251.074219 171.234375 233.027344 172.96875 C 232.71875 172.996094 232.484375 172.933594 232.304688 172.796875 C 228.242188 173.523438 224.183594 174.105469 220.121094 174.828125 C 216.59375 175.464844 213.144531 176.28125 209.902344 177.539062 L 209.886719 177.539062 L 209.882812 177.558594 C 207.65625 178.414062 205.492188 179.488281 203.484375 180.882812 C 202.664062 181.4375 201.863281 182.046875 201.078125 182.714844 C 198.066406 185.292969 195.28125 188.1875 192.566406 191.136719 C 199.5625 185.757812 207.585938 181.8125 216.183594 179.632812 C 229.171875 176.316406 241.601562 178.515625 254.644531 180.222656 C 269.878906 182.234375 285.007812 179.117188 300.097656 177.125 C 313.671875 175.324219 327.25 173.519531 340.820312 171.734375 C 340.664062 171.527344 340.601562 171.269531 340.648438 170.925781 Z M 336.234375 162.128906 C 332.578125 161.59375 328.820312 161.367188 325.117188 161.03125 C 317.679688 160.394531 310.238281 159.917969 302.777344 159.863281 C 298.285156 159.84375 293.820312 160.03125 289.40625 160.417969 C 288.859375 160.472656 288.332031 160.53125 287.765625 160.582031 C 283.019531 161.050781 278.320312 161.753906 273.617188 162.660156 C 268.929688 163.566406 264.257812 164.671875 259.578125 165.960938 C 255.980469 166.933594 252.398438 167.949219 248.820312 168.945312 C 262.144531 167.605469 275.484375 166.285156 288.835938 165.203125 C 306.234375 163.792969 323.804688 163.445312 340.925781 167.371094 C 340.792969 164.746094 339.675781 162.625 336.234375 162.128906 Z M 322.023438 150.292969 C 324.800781 149.910156 327.558594 149.539062 330.320312 149.03125 C 334.019531 148.3125 337.175781 147.972656 337.960938 143.382812 C 338.503906 140.054688 338.675781 136.496094 338.785156 133.042969 C 335.601562 135.234375 331.191406 136.128906 327.75 137.292969 C 321.996094 139.21875 316.171875 140.996094 310.332031 142.683594 C 298.378906 146.121094 286.324219 149.226562 274.339844 152.535156 C 255.488281 157.769531 236.726562 163.703125 219.273438 172.472656 C 219.363281 172.460938 219.453125 172.441406 219.527344 172.429688 C 227.210938 171.054688 234.867188 169.988281 242.460938 168.066406 C 250.515625 166.015625 258.453125 163.558594 266.519531 161.5625 C 273.949219 159.742188 281.40625 158.601562 288.902344 157.984375 C 299.699219 154.34375 310.730469 151.84375 322.023438 150.292969 Z M 334.027344 132.636719 C 330.433594 132.957031 326.835938 132.972656 323.238281 133.332031 C 309.328125 134.707031 295.308594 137.964844 281.777344 141.335938 C 257.53125 147.398438 234.117188 156 211.390625 166.273438 C 207.796875 168.90625 204.339844 171.707031 201.0625 174.730469 C 195.492188 179.824219 190.523438 185.03125 188.464844 191.949219 C 192.539062 187.441406 196.65625 182.773438 201.496094 179.21875 C 203.828125 177.492188 206.378906 176.191406 209.03125 175.183594 C 218.265625 169.824219 227.972656 165.40625 237.917969 161.59375 C 247.882812 157.785156 258.082031 154.582031 268.347656 151.652344 C 279.859375 148.367188 291.433594 145.390625 302.960938 142.195312 C 308.835938 140.542969 314.691406 138.859375 320.5 137.042969 C 323.179688 136.203125 325.847656 135.324219 328.496094 134.425781 C 330.1875 133.84375 332.296875 133.34375 334.25 132.625 C 334.175781 132.625 334.101562 132.625 334.027344 132.636719 Z M 186.902344 157.675781 C 182.046875 153.664062 176.511719 150.359375 171.160156 147.082031 C 162.703125 141.886719 154.050781 137.007812 145.304688 132.363281 C 125.324219 121.722656 104.558594 111.660156 82.824219 105.183594 C 75.148438 102.902344 66.722656 100.632812 58.5625 100.992188 C 64.882812 104.175781 71.242188 107.304688 77.5625 110.507812 C 85.515625 113.308594 93.113281 117.386719 100.542969 121.277344 C 108.769531 125.597656 117.164062 130.027344 124.683594 135.527344 C 137.128906 144.632812 149.757812 153.617188 161.617188 163.472656 C 164.523438 165.871094 167.386719 168.347656 170.21875 170.835938 C 171.316406 171.816406 172.574219 172.804688 173.820312 173.824219 C 174.59375 170.558594 176.785156 167.554688 179.101562 165.011719 C 171.933594 157.691406 163.222656 152.429688 153.402344 149.480469 C 151.867188 149.03125 152.601562 146.652344 154.132812 147.121094 C 164.3125 150.171875 173.378906 155.660156 180.832031 163.230469 C 180.964844 163.089844 181.097656 162.964844 181.246094 162.824219 C 183.085938 161.046875 185.03125 159.378906 187.046875 157.792969 C 187.011719 157.75 186.957031 157.714844 186.902344 157.675781 Z M 38.519531 149.851562 C 56.011719 150.15625 73.378906 150.925781 90.542969 154.65625 C 107.292969 158.28125 123.550781 163.621094 140.113281 167.929688 C 132.292969 163.898438 124.117188 160.65625 116.585938 157.851562 C 99.683594 151.582031 82.148438 146.933594 64.488281 143.3125 C 64.347656 143.785156 63.953125 144.152344 63.296875 144.078125 C 54.507812 143.105469 45.859375 145.101562 38.519531 149.851562 Z M 37.054688 160.425781 C 74.386719 153.449219 114.542969 162.441406 149.574219 175.269531 C 151.445312 175.949219 153.332031 176.644531 155.183594 177.375 C 152.503906 175.308594 149.671875 173.398438 146.742188 171.632812 C 146.464844 171.878906 109.628906 161.429688 91.292969 157.355469 C 77.4375 154.273438 63.46875 153.121094 49.402344 152.617188 C 49.335938 152.925781 49.144531 153.226562 48.777344 153.414062 C 44.757812 155.597656 40.863281 157.925781 37.054688 160.425781 Z M 35.347656 163.769531 C 34.859375 164.71875 34.503906 165.5625 34.222656 166.425781 C 44.96875 163.261719 56.164062 161.871094 67.371094 162.535156 C 79.84375 163.28125 91.9375 166.6875 103.808594 170.425781 C 115.554688 174.109375 127.28125 177.832031 138.960938 181.695312 C 149.0625 185.019531 158.890625 188.96875 167.09375 195.886719 C 167.570312 196.285156 169.796875 196.136719 171.0625 195.722656 C 171.042969 195.6875 171.011719 195.648438 170.992188 195.59375 C 168.460938 190.675781 165.070312 186.328125 161.078125 182.457031 C 160.9375 182.433594 160.808594 182.390625 160.683594 182.335938 C 150.929688 177.84375 140.5 174.527344 130.246094 171.507812 C 110.441406 165.65625 89.921875 161.546875 69.242188 160.792969 C 57.921875 160.378906 46.585938 161.035156 35.488281 163.265625 C 35.484375 163.429688 35.441406 163.609375 35.347656 163.769531 Z M 101.640625 175.175781 C 92.574219 174.796875 83.488281 174.453125 74.4375 174.109375 C 65.789062 173.796875 57.140625 173.46875 48.507812 173.136719 C 44.621094 172.996094 40.632812 173.121094 36.769531 172.671875 C 35.59375 172.523438 34.425781 172.140625 33.226562 172.070312 C 31.644531 171.945312 31.085938 172.363281 30.546875 173.308594 C 35.917969 172.625 41.816406 173.089844 47.011719 173.363281 C 61.210938 174.105469 75.269531 176.699219 89.273438 178.914062 C 102.328125 180.984375 115.6875 182.484375 128.355469 186.375 C 134.785156 188.347656 140.882812 191.085938 147.113281 193.648438 C 152.644531 195.914062 158.710938 196.183594 164.066406 198.933594 C 164.675781 198.554688 165.308594 198.210938 165.9375 197.867188 C 165.71875 197.84375 165.484375 197.746094 165.292969 197.574219 C 156.894531 190.503906 146.554688 186.757812 136.253906 183.410156 C 132.996094 182.359375 129.734375 181.292969 126.472656 180.261719 C 126.285156 180.511719 112.851562 175.664062 101.640625 175.175781 Z M 22.351562 183.179688 C 22.652344 182.421875 23.464844 182.066406 24.195312 182.492188 C 24.230469 182.507812 24.265625 182.53125 24.304688 182.550781 C 24.105469 179.050781 23.769531 174.710938 27.4375 173.867188 C 27.472656 173.847656 27.507812 173.832031 27.566406 173.832031 C 27.585938 173.757812 27.605469 173.707031 27.628906 173.636719 C 28.519531 171.863281 29.039062 169.824219 31.144531 169.417969 C 31.363281 169.371094 31.601562 169.34375 31.820312 169.332031 C 32.066406 169.503906 32.394531 169.585938 32.761719 169.46875 L 33.167969 169.339844 C 35.363281 169.5 37.832031 170.269531 39.8125 170.332031 L 68.867188 171.421875 C 78.515625 171.785156 88.167969 172.09375 97.8125 172.511719 C 99.59375 172.585938 101.394531 172.660156 103.171875 172.828125 C 103.152344 172.804688 103.117188 172.804688 103.078125 172.785156 C 91.660156 169.1875 80.050781 165.886719 68.050781 165.070312 C 56.234375 164.273438 44.46875 165.808594 33.167969 169.339844 C 32.714844 169.304688 32.257812 169.308594 31.820312 169.332031 C 31.394531 169.027344 31.175781 168.417969 31.285156 167.894531 C 31.585938 166.46875 31.992188 165.171875 32.558594 163.898438 C 32.226562 163.980469 31.898438 164.042969 31.570312 164.121094 C 30.101562 164.476562 29.613281 162.605469 30.695312 161.839844 C 35.40625 158.445312 40.289062 155.324219 45.347656 152.488281 C 41.804688 152.390625 38.273438 152.316406 34.730469 152.277344 C 33.710938 152.261719 33.046875 150.804688 33.910156 150.136719 C 40.175781 145.191406 47.53125 142.230469 55.265625 141.511719 C 54.960938 141.464844 54.671875 141.402344 54.363281 141.355469 C 49.878906 140.519531 45.214844 140.117188 40.753906 139.085938 C 39.582031 138.8125 39.660156 136.902344 40.832031 136.6875 C 42.351562 136.425781 44.519531 134.53125 46.085938 133.910156 C 47.710938 133.25 49.382812 132.703125 51.089844 132.269531 C 54.941406 131.28125 58.902344 130.789062 62.859375 130.570312 C 72.117188 130.046875 81.4375 131.070312 90.535156 132.65625 C 99.796875 134.238281 109.082031 136.390625 118.089844 139.207031 C 110.078125 132.605469 101.988281 126.089844 92.777344 121.179688 C 87.335938 118.292969 81.863281 115.484375 76.363281 112.703125 C 76.183594 112.644531 75.988281 112.566406 75.804688 112.507812 C 75.550781 112.425781 75.375 112.292969 75.253906 112.144531 C 68.164062 108.570312 61.070312 105.035156 54.019531 101.464844 C 53.464844 101.175781 53.332031 100.695312 53.4375 100.226562 C 53.328125 99.640625 53.585938 99.035156 54.355469 98.914062 C 62.324219 97.75 70.570312 99.375 78.273438 101.347656 C 88.972656 104.109375 99.363281 108.074219 109.519531 112.382812 C 130.34375 121.230469 150.527344 131.746094 169.894531 143.402344 C 176.320312 147.28125 182.925781 151.1875 188.722656 155.988281 C 188.828125 156.082031 188.933594 156.195312 188.988281 156.304688 C 189.042969 156.273438 203.199219 147.066406 207.609375 144.570312 C 231.769531 130.921875 257.441406 120.011719 282.898438 109.019531 C 288.707031 106.515625 294.539062 104.007812 300.351562 101.429688 C 308.914062 97.613281 317.722656 94.601562 326.40625 91.058594 C 327.179688 90.742188 327.878906 91.199219 328.148438 91.789062 C 328.148438 91.804688 328.164062 91.804688 328.164062 91.804688 C 328.199219 91.882812 328.199219 91.953125 328.210938 92.027344 C 328.289062 92.464844 328.113281 92.949219 327.59375 93.242188 C 322.132812 96.160156 317.109375 100.183594 312.066406 103.714844 C 303.785156 109.488281 295.542969 115.296875 287.226562 121.035156 C 266.894531 135.042969 244.394531 145.164062 223.4375 158.1875 C 223.199219 158.324219 222.957031 158.480469 222.714844 158.617188 C 240.214844 151.265625 258.117188 144.964844 276.519531 140.128906 C 290.335938 136.496094 304.34375 133.617188 318.492188 131.503906 C 321.945312 130.996094 325.339844 130.742188 328.839844 130.527344 C 331.027344 130.398438 333.230469 130.285156 335.421875 130.027344 C 336.375 129.914062 338.480469 129.960938 339.210938 129.277344 C 339.589844 128.921875 340.152344 128.832031 340.621094 129.011719 C 340.640625 129.011719 340.640625 129.011719 340.640625 129.011719 C 340.960938 129.1875 341.207031 129.464844 341.324219 129.78125 C 341.324219 129.796875 341.34375 129.796875 341.34375 129.8125 C 341.359375 129.90625 341.371094 130.035156 341.367188 130.164062 L 341.359375 130.417969 C 341.183594 135.375 341.070312 140.664062 340.328125 145.566406 C 339.589844 150.511719 334.25 150.828125 330.148438 151.574219 C 323.160156 152.839844 316.097656 153.503906 309.136719 154.992188 C 305.714844 155.699219 302.320312 156.539062 298.945312 157.488281 C 304.476562 157.371094 310.039062 157.496094 315.632812 157.835938 C 319.878906 158.101562 324.128906 158.453125 328.375 158.84375 C 331.765625 159.167969 335.9375 158.941406 339.15625 160.132812 C 343.792969 161.863281 343.835938 166.808594 343.140625 171.007812 C 343.113281 171.167969 343.058594 171.3125 342.980469 171.4375 C 343.839844 171.339844 344.695312 171.21875 345.554688 171.101562 C 346.265625 171.015625 346.804688 171.324219 347.054688 172.023438 C 348.355469 175.703125 349.125 179.4375 349.421875 183.300781 C 349.570312 183.214844 349.71875 183.128906 349.886719 183.042969 C 350.457031 182.789062 351.308594 182.90625 351.578125 183.550781 C 352.628906 186.058594 356.300781 189.519531 353.378906 192.230469 C 351.390625 194.089844 347.03125 194.445312 344.476562 195.109375 C 335.878906 197.289062 327.144531 198.972656 318.417969 200.511719 C 310.550781 201.917969 302.652344 203.175781 294.738281 204.304688 C 291.449219 204.765625 287.667969 205.808594 284.324219 205.609375 L 284.199219 205.605469 C 272.226562 205.023438 260.15625 208.238281 248.234375 209.421875 C 238.363281 210.398438 228.476562 211.191406 218.574219 211.875 C 204.609375 212.8125 190.78125 213.480469 176.859375 212.585938 C 158.15625 211.367188 139.429688 210.40625 120.722656 209.355469 C 103.523438 208.386719 86.398438 206.386719 69.308594 204.28125 C 59.449219 203.054688 49.558594 201.792969 39.773438 200.097656 C 36.566406 199.542969 33.386719 198.914062 30.203125 198.304688 C 27.292969 197.753906 21.453125 197.097656 20.625 193.523438 C 20.609375 193.394531 20.59375 193.269531 20.597656 193.160156 C 20.492188 189.644531 21.050781 186.445312 22.351562 183.179688 " fill-opacity="1" fill-rule="nonzero"/></g><path fill="#040606" d="M 326.40625 91.058594 C 327.179688 90.742188 327.878906 91.199219 328.148438 91.789062 C 327.914062 91.148438 327.199219 90.667969 326.40625 91.058594 " fill-opacity="1" fill-rule="nonzero"/><path fill="#040606" d="M 186.238281 197.644531 C 186.238281 197.648438 186.238281 197.648438 186.238281 197.652344 C 186.242188 197.652344 186.246094 197.652344 186.25 197.648438 C 186.242188 197.648438 186.246094 197.644531 186.238281 197.644531 " fill-opacity="1" fill-rule="nonzero"/><path fill="#040606" d="M 236.335938 83.566406 C 235.925781 84.335938 235.179688 85.464844 236.121094 86.171875 C 237.140625 86.941406 239.355469 86.207031 240.40625 85.863281 C 242.8125 85.074219 244.9375 83.683594 247.542969 83.671875 C 247.558594 83.671875 247.570312 83.671875 247.585938 83.667969 C 249.320312 85.703125 251.203125 87.585938 253.292969 89.257812 C 254.15625 89.949219 256.15625 92.039062 257.523438 91.371094 C 258.890625 90.703125 258.160156 88.203125 257.980469 87.167969 C 257.503906 84.472656 256.730469 81.859375 256.9375 79.105469 C 257.058594 79.105469 257.179688 79.0625 257.300781 78.964844 L 265.261719 72.441406 C 265.714844 72.074219 265.457031 71.441406 265.046875 71.300781 C 264.964844 71.179688 264.828125 71.089844 264.640625 71.0625 L 253.96875 69.402344 C 253.007812 65.199219 251.9375 61.027344 250.75 56.878906 C 250.617188 56.410156 249.949219 56.371094 249.667969 56.710938 C 248.359375 58.320312 245.59375 65.855469 244.8125 67.640625 C 244.746094 67.597656 244.671875 67.539062 244.578125 67.542969 C 241.359375 67.636719 237.128906 68.652344 236.226562 68.867188 C 235.925781 68.9375 235.25 69.003906 235.019531 69.316406 C 234.335938 70.261719 235.640625 71.1875 236.195312 71.757812 C 237.621094 73.222656 239.042969 74.695312 240.46875 76.164062 C 240.460938 76.171875 240.453125 76.1875 240.445312 76.199219 C 239.078125 78.65625 237.660156 81.085938 236.335938 83.566406 " fill-opacity="1" fill-rule="nonzero"/><path fill="#040606" d="M 180.859375 130.613281 C 180.804688 131.167969 180.640625 132.023438 181.375 132.210938 C 182.171875 132.414062 183.304688 131.429688 183.84375 130.964844 C 185.078125 129.902344 185.992188 128.550781 187.535156 127.894531 C 187.542969 127.890625 187.550781 127.890625 187.5625 127.882812 C 189.09375 128.664062 190.679688 129.3125 192.332031 129.789062 C 193.019531 129.984375 194.722656 130.730469 195.367188 129.996094 C 196.019531 129.257812 194.960938 127.953125 194.597656 127.386719 C 193.648438 125.90625 192.539062 124.546875 191.980469 122.859375 C 192.050781 122.832031 192.113281 122.773438 192.160156 122.683594 L 195.269531 116.84375 C 195.449219 116.511719 195.136719 116.199219 194.859375 116.21875 C 194.78125 116.167969 194.675781 116.144531 194.558594 116.175781 L 187.8125 117.835938 C 186.199219 115.578125 184.53125 113.363281 182.796875 111.199219 C 182.601562 110.953125 182.195312 111.09375 182.113281 111.367188 C 181.738281 112.644531 181.960938 117.804688 181.941406 119.058594 C 181.890625 119.046875 181.832031 119.03125 181.777344 119.054688 C 179.890625 119.910156 177.632812 121.5625 177.148438 121.914062 C 176.988281 122.027344 176.601562 122.234375 176.542969 122.476562 C 176.371094 123.207031 177.375 123.433594 177.84375 123.636719 C 179.054688 124.152344 180.265625 124.671875 181.476562 125.191406 C 181.472656 125.203125 181.472656 125.210938 181.472656 125.222656 C 181.265625 127.015625 181.03125 128.8125 180.859375 130.613281 " fill-opacity="1" fill-rule="nonzero"/><path fill="#040606" d="M 146.785156 106.292969 C 147.042969 106.550781 147.402344 106.988281 147.800781 106.699219 C 148.238281 106.386719 148.21875 105.40625 148.207031 104.941406 C 148.1875 103.878906 147.894531 102.855469 148.207031 101.8125 C 148.207031 101.804688 148.210938 101.800781 148.210938 101.792969 C 149.238281 101.351562 150.226562 100.828125 151.15625 100.195312 C 151.539062 99.933594 152.621094 99.390625 152.523438 98.761719 C 152.425781 98.132812 151.332031 98.113281 150.894531 98.0625 C 149.757812 97.921875 148.613281 97.910156 147.53125 97.488281 C 147.546875 97.4375 147.546875 97.382812 147.519531 97.324219 L 145.886719 93.328125 C 145.796875 93.101562 145.511719 93.128906 145.402344 93.273438 C 145.34375 93.292969 145.289062 93.335938 145.257812 93.410156 L 143.273438 97.476562 C 141.472656 97.347656 139.667969 97.261719 137.855469 97.222656 C 137.652344 97.222656 137.554688 97.488281 137.65625 97.640625 C 138.140625 98.363281 140.820312 100.398438 141.441406 100.933594 C 141.414062 100.953125 141.382812 100.976562 141.371094 101.015625 C 141.015625 102.3125 140.902344 104.132812 140.875 104.523438 C 140.867188 104.652344 140.808594 104.929688 140.90625 105.0625 C 141.199219 105.453125 141.734375 105.042969 142.027344 104.890625 C 142.796875 104.503906 143.558594 104.109375 144.324219 103.722656 C 144.328125 103.726562 144.332031 103.730469 144.339844 103.734375 C 145.152344 104.585938 145.953125 105.453125 146.785156 106.292969 " fill-opacity="1" fill-rule="nonzero"/><path fill="#040606" d="M 197.445312 86.3125 C 197.617188 86.488281 197.867188 86.789062 198.140625 86.589844 C 198.4375 86.375 198.421875 85.707031 198.414062 85.394531 C 198.402344 84.667969 198.199219 83.972656 198.417969 83.257812 C 198.417969 83.253906 198.417969 83.25 198.417969 83.246094 C 199.121094 82.945312 199.792969 82.585938 200.425781 82.15625 C 200.6875 81.976562 201.425781 81.609375 201.359375 81.179688 C 201.292969 80.746094 200.546875 80.738281 200.25 80.703125 C 199.472656 80.601562 198.691406 80.59375 197.953125 80.308594 C 197.964844 80.277344 197.964844 80.238281 197.945312 80.195312 L 196.832031 77.472656 C 196.769531 77.316406 196.574219 77.335938 196.503906 77.4375 C 196.464844 77.445312 196.425781 77.476562 196.402344 77.527344 L 195.054688 80.304688 C 193.820312 80.214844 192.589844 80.15625 191.355469 80.128906 C 191.21875 80.125 191.148438 80.308594 191.21875 80.410156 C 191.550781 80.90625 193.378906 82.292969 193.800781 82.65625 C 193.78125 82.671875 193.761719 82.6875 193.753906 82.714844 C 193.507812 83.601562 193.433594 84.839844 193.417969 85.109375 C 193.410156 85.195312 193.371094 85.382812 193.4375 85.476562 C 193.640625 85.742188 194 85.460938 194.203125 85.359375 C 194.722656 85.089844 195.246094 84.828125 195.765625 84.558594 C 195.769531 84.566406 195.773438 84.566406 195.777344 84.570312 C 196.332031 85.152344 196.878906 85.742188 197.445312 86.3125 " fill-opacity="1" fill-rule="nonzero"/><path fill="#040606" d="M 132.546875 72.226562 C 132.898438 72.328125 133.425781 72.53125 133.632812 72.082031 C 133.859375 71.597656 133.363281 70.753906 133.128906 70.355469 C 132.589844 69.4375 131.832031 68.691406 131.597656 67.625 C 131.597656 67.617188 131.59375 67.613281 131.589844 67.609375 C 132.273438 66.71875 132.878906 65.777344 133.378906 64.773438 C 133.589844 64.359375 134.269531 63.355469 133.875 62.855469 C 133.480469 62.351562 132.515625 62.875 132.109375 63.039062 C 131.046875 63.472656 130.039062 64.019531 128.894531 64.179688 C 128.882812 64.128906 128.851562 64.082031 128.804688 64.042969 L 125.425781 61.355469 C 125.234375 61.203125 124.996094 61.363281 124.976562 61.546875 C 124.933594 61.589844 124.910156 61.652344 124.914062 61.734375 L 125.175781 66.253906 C 123.535156 67.019531 121.921875 67.828125 120.324219 68.679688 C 120.144531 68.773438 120.183594 69.054688 120.351562 69.136719 C 121.125 69.53125 124.460938 70 125.265625 70.160156 C 125.25 70.191406 125.234375 70.226562 125.246094 70.269531 C 125.566406 71.574219 126.359375 73.21875 126.523438 73.570312 C 126.582031 73.6875 126.664062 73.957031 126.816406 74.027344 C 127.261719 74.222656 127.527344 73.605469 127.714844 73.332031 C 128.191406 72.613281 128.667969 71.902344 129.144531 71.1875 C 129.148438 71.1875 129.15625 71.191406 129.160156 71.195312 C 130.289062 71.539062 131.414062 71.902344 132.546875 72.226562 " fill-opacity="1" fill-rule="nonzero"/><g clip-path="url(#42421416b8)"><path fill="#040606" d="M 154.859375 57.183594 C 154.808594 57.742188 154.648438 58.597656 155.378906 58.785156 C 156.175781 58.988281 157.308594 58.003906 157.847656 57.539062 C 159.082031 56.476562 159.996094 55.125 161.539062 54.472656 C 161.546875 54.464844 161.554688 54.464844 161.566406 54.457031 C 163.097656 55.238281 164.683594 55.886719 166.335938 56.363281 C 167.023438 56.558594 168.726562 57.304688 169.375 56.570312 C 170.023438 55.835938 168.964844 54.527344 168.605469 53.960938 C 167.652344 52.480469 166.542969 51.117188 165.984375 49.433594 C 166.054688 49.40625 166.117188 49.347656 166.164062 49.257812 L 169.273438 43.417969 C 169.453125 43.085938 169.140625 42.773438 168.863281 42.796875 C 168.785156 42.742188 168.683594 42.722656 168.5625 42.75 L 161.816406 44.410156 C 160.207031 42.148438 158.535156 39.941406 156.804688 37.773438 C 156.605469 37.527344 156.199219 37.667969 156.117188 37.941406 C 155.742188 39.222656 155.964844 44.378906 155.945312 45.632812 C 155.894531 45.621094 155.832031 45.605469 155.78125 45.632812 C 153.894531 46.484375 151.636719 48.136719 151.152344 48.488281 C 150.992188 48.601562 150.605469 48.808594 150.546875 49.050781 C 150.375 49.78125 151.378906 50.007812 151.851562 50.210938 C 153.058594 50.726562 154.269531 51.25 155.480469 51.765625 C 155.480469 51.773438 155.476562 51.785156 155.476562 51.792969 C 155.269531 53.589844 155.03125 55.386719 154.859375 57.183594 " fill-opacity="1" fill-rule="nonzero"/></g><g fill="#000000" fill-opacity="1"><g transform="translate(51.81879, 295.431183)"><g><path d="M 11.984375 -24.75 L 11.984375 0 L 2.90625 0 L 2.90625 -39.875 L 11.984375 -39.875 L 27.84375 -15.125 L 27.9375 -15.125 L 27.9375 -39.875 L 37.015625 -39.875 L 37.015625 0 L 27.9375 0 L 12.078125 -24.75 Z M 11.984375 -24.75 "/></g></g></g><g fill="#000000" fill-opacity="1"><g transform="translate(91.724145, 295.431183)"><g><path d="M 11.984375 -16 L 11.984375 0 L 2.90625 0 L 2.90625 -39.875 L 11.984375 -39.875 L 11.984375 -23.96875 L 24.84375 -23.96875 L 24.84375 -39.875 L 33.921875 -39.875 L 33.921875 0 L 24.84375 0 L 24.84375 -16 Z M 11.984375 -16 "/></g></g></g><g fill="#000000" fill-opacity="1"><g transform="translate(128.537558, 295.431183)"><g><path d="M 11.9375 -55.671875 L 21.75 -47.171875 L 19.046875 -43.453125 L 7.546875 -50.109375 Z M 23.15625 -39.875 L 39.25 0 L 29.484375 0 L 26.53125 -7.96875 L 11.359375 -7.96875 L 8.40625 0 L -1.359375 0 L 14.734375 -39.875 Z M 23.4375 -15.953125 L 19 -27.546875 L 18.890625 -27.546875 L 14.453125 -15.953125 Z M 23.4375 -15.953125 "/></g></g></g><g fill="#000000" fill-opacity="1"><g transform="translate(166.413848, 295.431183)"><g/></g></g><g fill="#000000" fill-opacity="1"><g transform="translate(179.602914, 295.431183)"><g><path d="M 17.59375 -40.59375 C 19.75 -40.59375 21.859375 -40.273438 23.921875 -39.640625 C 25.984375 -39.015625 27.515625 -38.398438 28.515625 -37.796875 L 29.96875 -36.828125 L 26.296875 -29.578125 C 26.003906 -29.765625 25.597656 -30.007812 25.078125 -30.3125 C 24.566406 -30.625 23.601562 -31.035156 22.1875 -31.546875 C 20.769531 -32.066406 19.445312 -32.328125 18.21875 -32.328125 C 16.707031 -32.328125 15.539062 -32.003906 14.71875 -31.359375 C 13.894531 -30.710938 13.484375 -29.84375 13.484375 -28.75 C 13.484375 -28.207031 13.675781 -27.703125 14.0625 -27.234375 C 14.445312 -26.765625 15.109375 -26.265625 16.046875 -25.734375 C 16.984375 -25.203125 17.804688 -24.773438 18.515625 -24.453125 C 19.222656 -24.128906 20.316406 -23.644531 21.796875 -23 C 24.367188 -21.90625 26.566406 -20.414062 28.390625 -18.53125 C 30.210938 -16.644531 31.125 -14.507812 31.125 -12.125 C 31.125 -9.84375 30.710938 -7.847656 29.890625 -6.140625 C 29.066406 -4.429688 27.9375 -3.09375 26.5 -2.125 C 25.070312 -1.15625 23.488281 -0.441406 21.75 0.015625 C 20.007812 0.484375 18.125 0.71875 16.09375 0.71875 C 14.351562 0.71875 12.644531 0.539062 10.96875 0.1875 C 9.289062 -0.164062 7.890625 -0.609375 6.765625 -1.140625 C 5.640625 -1.671875 4.625 -2.191406 3.71875 -2.703125 C 2.820312 -3.222656 2.160156 -3.660156 1.734375 -4.015625 L 1.109375 -4.546875 L 5.65625 -12.171875 C 6.039062 -11.859375 6.570312 -11.453125 7.25 -10.953125 C 7.925781 -10.453125 9.125 -9.78125 10.84375 -8.9375 C 12.570312 -8.101562 14.097656 -7.6875 15.421875 -7.6875 C 19.253906 -7.6875 21.171875 -8.988281 21.171875 -11.59375 C 21.171875 -12.144531 21.03125 -12.65625 20.75 -13.125 C 20.476562 -13.59375 19.992188 -14.054688 19.296875 -14.515625 C 18.609375 -14.984375 18 -15.351562 17.46875 -15.625 C 16.9375 -15.90625 16.066406 -16.328125 14.859375 -16.890625 C 13.648438 -17.453125 12.753906 -17.878906 12.171875 -18.171875 C 9.753906 -19.359375 7.882812 -20.847656 6.5625 -22.640625 C 5.25 -24.429688 4.59375 -26.359375 4.59375 -28.421875 C 4.59375 -31.992188 5.910156 -34.914062 8.546875 -37.1875 C 11.191406 -39.457031 14.207031 -40.59375 17.59375 -40.59375 Z M 17.59375 -40.59375 "/></g></g></g><g fill="#000000" fill-opacity="1"><g transform="translate(212.068294, 295.431183)"><g><path d="M 16.09375 -47.171875 L 25.90625 -55.671875 L 30.296875 -50.109375 L 18.796875 -43.453125 Z M 23.15625 -39.875 L 39.25 0 L 29.484375 0 L 26.53125 -7.96875 L 11.359375 -7.96875 L 8.40625 0 L -1.359375 0 L 14.734375 -39.875 Z M 23.4375 -15.953125 L 19 -27.546875 L 18.890625 -27.546875 L 14.453125 -15.953125 Z M 23.4375 -15.953125 "/></g></g></g><g fill="#000000" fill-opacity="1"><g transform="translate(249.944583, 295.431183)"><g><path d="M 24.109375 -8.21875 C 25.492188 -8.21875 26.835938 -8.425781 28.140625 -8.84375 C 29.453125 -9.257812 30.414062 -9.660156 31.03125 -10.046875 L 31.9375 -10.6875 L 35.8125 -2.953125 C 35.6875 -2.847656 35.507812 -2.710938 35.28125 -2.546875 C 35.050781 -2.390625 34.523438 -2.09375 33.703125 -1.65625 C 32.878906 -1.226562 32 -0.851562 31.0625 -0.53125 C 30.132812 -0.207031 28.910156 0.078125 27.390625 0.328125 C 25.878906 0.585938 24.320312 0.71875 22.71875 0.71875 C 19.007812 0.71875 15.492188 -0.1875 12.171875 -2 C 8.859375 -3.820312 6.1875 -6.328125 4.15625 -9.515625 C 2.125 -12.710938 1.109375 -16.160156 1.109375 -19.859375 C 1.109375 -22.660156 1.703125 -25.347656 2.890625 -27.921875 C 4.085938 -30.503906 5.675781 -32.710938 7.65625 -34.546875 C 9.632812 -36.390625 11.945312 -37.859375 14.59375 -38.953125 C 17.238281 -40.046875 19.945312 -40.59375 22.71875 -40.59375 C 25.289062 -40.59375 27.664062 -40.285156 29.84375 -39.671875 C 32.019531 -39.066406 33.554688 -38.457031 34.453125 -37.84375 L 35.8125 -36.921875 L 31.9375 -29.1875 C 31.71875 -29.382812 31.378906 -29.617188 30.921875 -29.890625 C 30.472656 -30.160156 29.570312 -30.519531 28.21875 -30.96875 C 26.863281 -31.425781 25.492188 -31.65625 24.109375 -31.65625 C 21.921875 -31.65625 19.957031 -31.300781 18.21875 -30.59375 C 16.476562 -29.882812 15.097656 -28.945312 14.078125 -27.78125 C 13.066406 -26.625 12.296875 -25.375 11.765625 -24.03125 C 11.234375 -22.695312 10.96875 -21.335938 10.96875 -19.953125 C 10.96875 -16.929688 12.101562 -14.21875 14.375 -11.8125 C 16.644531 -9.414062 19.890625 -8.21875 24.109375 -8.21875 Z M 24.109375 -8.21875 "/></g></g></g><g fill="#000000" fill-opacity="1"><g transform="translate(286.323207, 295.431183)"><g><path d="M 11.984375 -16 L 11.984375 0 L 2.90625 0 L 2.90625 -39.875 L 11.984375 -39.875 L 11.984375 -23.96875 L 24.84375 -23.96875 L 24.84375 -39.875 L 33.921875 -39.875 L 33.921875 0 L 24.84375 0 L 24.84375 -16 Z M 11.984375 -16 "/></g></g></g><g fill="#000000" fill-opacity="1"><g transform="translate(106.807541, 343.295526)"><g><path d="M 19.40625 0 L 2.078125 0 C 1.765625 0 1.609375 -0.144531 1.609375 -0.4375 L 1.609375 -1.875 C 1.609375 -2.09375 1.832031 -2.472656 2.28125 -3.015625 L 15.859375 -21.515625 L 4.421875 -21.515625 L 4.421875 -18.796875 C 4.421875 -18.484375 4.265625 -18.328125 3.953125 -18.328125 L 2.078125 -18.328125 C 1.765625 -18.328125 1.609375 -18.484375 1.609375 -18.796875 L 1.609375 -23.578125 C 1.609375 -23.867188 1.765625 -24.015625 2.078125 -24.015625 L 19.40625 -24.015625 C 19.695312 -24.015625 19.84375 -23.867188 19.84375 -23.578125 L 19.84375 -22.34375 C 19.84375 -21.96875 19.617188 -21.507812 19.171875 -20.96875 L 5.59375 -2.515625 L 17.0625 -2.515625 L 17.0625 -5.21875 C 17.0625 -5.53125 17.207031 -5.6875 17.5 -5.6875 L 19.40625 -5.6875 C 19.695312 -5.6875 19.84375 -5.53125 19.84375 -5.21875 L 19.84375 -0.4375 C 19.84375 -0.144531 19.695312 0 19.40625 0 Z M 19.40625 0 "/></g></g></g><g fill="#000000" fill-opacity="1"><g transform="translate(128.241442, 343.295526)"><g><path d="M 24.890625 -12.125 C 24.890625 -8.457031 23.789062 -5.476562 21.59375 -3.1875 C 19.394531 -0.90625 16.628906 0.234375 13.296875 0.234375 C 9.960938 0.234375 7.179688 -0.914062 4.953125 -3.21875 C 2.722656 -5.53125 1.609375 -8.507812 1.609375 -12.15625 C 1.609375 -15.800781 2.753906 -18.722656 5.046875 -20.921875 C 7.347656 -23.117188 10.09375 -24.21875 13.28125 -24.21875 C 16.46875 -24.21875 19.195312 -23.117188 21.46875 -20.921875 C 23.75 -18.722656 24.890625 -15.789062 24.890625 -12.125 Z M 7.3125 -5.03125 C 9.019531 -3.320312 11.007812 -2.46875 13.28125 -2.46875 C 15.550781 -2.46875 17.535156 -3.320312 19.234375 -5.03125 C 20.929688 -6.738281 21.78125 -9.082031 21.78125 -12.0625 C 21.78125 -15.039062 20.914062 -17.367188 19.1875 -19.046875 C 17.457031 -20.734375 15.488281 -21.578125 13.28125 -21.578125 C 11.070312 -21.578125 9.097656 -20.734375 7.359375 -19.046875 C 5.617188 -17.367188 4.75 -15.039062 4.75 -12.0625 C 4.75 -9.082031 5.601562 -6.738281 7.3125 -5.03125 Z M 7.3125 -5.03125 "/></g></g></g><g fill="#000000" fill-opacity="1"><g transform="translate(154.757941, 343.295526)"><g><path d="M 10.0625 0 L 2.046875 0 C 1.753906 0 1.609375 -0.132812 1.609375 -0.40625 L 1.609375 -2.109375 C 1.609375 -2.378906 1.753906 -2.515625 2.046875 -2.515625 L 4.578125 -2.515625 L 4.578125 -21.515625 L 2.046875 -21.515625 C 1.753906 -21.515625 1.609375 -21.644531 1.609375 -21.90625 L 1.609375 -23.625 C 1.609375 -23.882812 1.753906 -24.015625 2.046875 -24.015625 L 10.0625 -24.015625 C 10.351562 -24.015625 10.5 -23.882812 10.5 -23.625 L 10.5 -21.90625 C 10.5 -21.644531 10.351562 -21.515625 10.0625 -21.515625 L 7.5 -21.515625 L 7.5 -2.515625 L 10.0625 -2.515625 C 10.351562 -2.515625 10.5 -2.378906 10.5 -2.109375 L 10.5 -0.40625 C 10.5 -0.132812 10.351562 0 10.0625 0 Z M 10.0625 0 "/></g></g></g><g fill="#000000" fill-opacity="1"><g transform="translate(166.862574, 343.295526)"><g><path d="M 12.84375 0 L 2.046875 0 C 1.753906 0 1.609375 -0.132812 1.609375 -0.40625 L 1.609375 -2.109375 C 1.609375 -2.378906 1.753906 -2.515625 2.046875 -2.515625 L 4.578125 -2.515625 L 4.578125 -21.515625 L 2.046875 -21.515625 C 1.753906 -21.515625 1.609375 -21.644531 1.609375 -21.90625 L 1.609375 -23.625 C 1.609375 -23.882812 1.753906 -24.015625 2.046875 -24.015625 L 12.8125 -24.015625 C 15.039062 -24.015625 16.773438 -23.421875 18.015625 -22.234375 C 19.253906 -21.054688 19.875 -19.507812 19.875 -17.59375 C 19.875 -15.34375 18.878906 -13.660156 16.890625 -12.546875 C 19.742188 -11.722656 21.171875 -9.828125 21.171875 -6.859375 C 21.171875 -4.765625 20.472656 -3.097656 19.078125 -1.859375 C 17.691406 -0.617188 15.613281 0 12.84375 0 Z M 7.5 -2.515625 L 12.609375 -2.515625 C 14.367188 -2.515625 15.742188 -2.882812 16.734375 -3.625 C 17.734375 -4.375 18.234375 -5.53125 18.234375 -7.09375 C 18.234375 -9.882812 16.425781 -11.28125 12.8125 -11.28125 L 7.5 -11.28125 Z M 7.5 -13.484375 L 12.609375 -13.484375 C 13.765625 -13.503906 14.769531 -13.835938 15.625 -14.484375 C 16.488281 -15.128906 16.921875 -16.144531 16.921875 -17.53125 C 16.921875 -18.914062 16.46875 -19.925781 15.5625 -20.5625 C 14.664062 -21.195312 13.5625 -21.515625 12.25 -21.515625 L 7.5 -21.515625 Z M 7.5 -13.484375 "/></g></g></g><g fill="#000000" fill-opacity="1"><g transform="translate(189.633988, 343.295526)"><g><path d="M 24.890625 -12.125 C 24.890625 -8.457031 23.789062 -5.476562 21.59375 -3.1875 C 19.394531 -0.90625 16.628906 0.234375 13.296875 0.234375 C 9.960938 0.234375 7.179688 -0.914062 4.953125 -3.21875 C 2.722656 -5.53125 1.609375 -8.507812 1.609375 -12.15625 C 1.609375 -15.800781 2.753906 -18.722656 5.046875 -20.921875 C 7.347656 -23.117188 10.09375 -24.21875 13.28125 -24.21875 C 16.46875 -24.21875 19.195312 -23.117188 21.46875 -20.921875 C 23.75 -18.722656 24.890625 -15.789062 24.890625 -12.125 Z M 7.3125 -5.03125 C 9.019531 -3.320312 11.007812 -2.46875 13.28125 -2.46875 C 15.550781 -2.46875 17.535156 -3.320312 19.234375 -5.03125 C 20.929688 -6.738281 21.78125 -9.082031 21.78125 -12.0625 C 21.78125 -15.039062 20.914062 -17.367188 19.1875 -19.046875 C 17.457031 -20.734375 15.488281 -21.578125 13.28125 -21.578125 C 11.070312 -21.578125 9.097656 -20.734375 7.359375 -19.046875 C 5.617188 -17.367188 4.75 -15.039062 4.75 -12.0625 C 4.75 -9.082031 5.601562 -6.738281 7.3125 -5.03125 Z M 7.3125 -5.03125 "/></g></g></g><g fill="#000000" fill-opacity="1"><g transform="translate(216.150486, 343.295526)"><g><path d="M 24.890625 -12.125 C 24.890625 -8.457031 23.789062 -5.476562 21.59375 -3.1875 C 19.394531 -0.90625 16.628906 0.234375 13.296875 0.234375 C 9.960938 0.234375 7.179688 -0.914062 4.953125 -3.21875 C 2.722656 -5.53125 1.609375 -8.507812 1.609375 -12.15625 C 1.609375 -15.800781 2.753906 -18.722656 5.046875 -20.921875 C 7.347656 -23.117188 10.09375 -24.21875 13.28125 -24.21875 C 16.46875 -24.21875 19.195312 -23.117188 21.46875 -20.921875 C 23.75 -18.722656 24.890625 -15.789062 24.890625 -12.125 Z M 7.3125 -5.03125 C 9.019531 -3.320312 11.007812 -2.46875 13.28125 -2.46875 C 15.550781 -2.46875 17.535156 -3.320312 19.234375 -5.03125 C 20.929688 -6.738281 21.78125 -9.082031 21.78125 -12.0625 C 21.78125 -15.039062 20.914062 -17.367188 19.1875 -19.046875 C 17.457031 -20.734375 15.488281 -21.578125 13.28125 -21.578125 C 11.070312 -21.578125 9.097656 -20.734375 7.359375 -19.046875 C 5.617188 -17.367188 4.75 -15.039062 4.75 -12.0625 C 4.75 -9.082031 5.601562 -6.738281 7.3125 -5.03125 Z M 7.3125 -5.03125 "/></g></g></g><g fill="#000000" fill-opacity="1"><g transform="translate(242.666985, 343.295526)"><g><path d="M 23.484375 0 L 20.578125 0 C 19.773438 0 19.101562 -0.535156 18.5625 -1.609375 L 15.421875 -8 C 15.242188 -8.351562 15.082031 -8.628906 14.9375 -8.828125 C 14.789062 -9.023438 14.476562 -9.222656 14 -9.421875 C 13.519531 -9.628906 12.921875 -9.734375 12.203125 -9.734375 L 7.5 -9.734375 L 7.5 -2.515625 L 10.578125 -2.515625 C 10.859375 -2.515625 11 -2.378906 11 -2.109375 L 11 -0.40625 C 11 -0.132812 10.859375 0 10.578125 0 L 2.046875 0 C 1.753906 0 1.609375 -0.132812 1.609375 -0.40625 L 1.609375 -2.109375 C 1.609375 -2.378906 1.753906 -2.515625 2.046875 -2.515625 L 4.578125 -2.515625 L 4.578125 -21.515625 L 2.046875 -21.515625 C 1.753906 -21.515625 1.609375 -21.644531 1.609375 -21.90625 L 1.609375 -23.625 C 1.609375 -23.882812 1.753906 -24.015625 2.046875 -24.015625 L 9.53125 -24.015625 C 9.800781 -24.015625 9.9375 -23.882812 9.9375 -23.625 L 9.9375 -21.90625 C 9.9375 -21.644531 9.800781 -21.515625 9.53125 -21.515625 L 7.5 -21.515625 L 7.5 -12.109375 L 11 -12.109375 C 13.363281 -12.109375 15.117188 -12.804688 16.265625 -14.203125 C 17.421875 -15.597656 18 -18.035156 18 -21.515625 L 15.71875 -21.515625 C 15.457031 -21.515625 15.328125 -21.644531 15.328125 -21.90625 L 15.328125 -23.625 C 15.328125 -23.882812 15.457031 -24.015625 15.71875 -24.015625 L 23.1875 -24.015625 C 23.445312 -24.015625 23.578125 -23.882812 23.578125 -23.625 L 23.578125 -21.90625 C 23.578125 -21.644531 23.445312 -21.515625 23.1875 -21.515625 L 20.875 -21.515625 C 20.875 -16.140625 19.359375 -12.625 16.328125 -10.96875 C 16.835938 -10.726562 17.238281 -10.410156 17.53125 -10.015625 C 17.820312 -9.628906 18.15625 -9.054688 18.53125 -8.296875 L 21.4375 -2.515625 L 23.484375 -2.515625 C 23.753906 -2.515625 23.890625 -2.378906 23.890625 -2.109375 L 23.890625 -0.40625 C 23.890625 -0.132812 23.753906 0 23.484375 0 Z M 23.484375 0 "/></g></g></g></svg>